<?xml version="1.0" encoding="iso-8859-1"?>
<!-- Generator: Adobe Illustrator 18.0.0, SVG Export Plug-In . SVG Version: 6.00 Build 0)  -->
<!DOCTYPE svg PUBLIC "-//W3C//DTD SVG 1.1//EN" "http://www.w3.org/Graphics/SVG/1.1/DTD/svg11.dtd">
<svg version="1.1" id="Capa_1" xmlns="http://www.w3.org/2000/svg" xmlns:xlink="http://www.w3.org/1999/xlink" x="0px" y="0px"
	 viewBox="0 0 287.449 287.449" style="enable-background:new 0 0 287.449 287.449;" xml:space="preserve">
<g>
	<path d="M124.948,119.82L68.823,33.23c-1.146-1.77-2.983-3.035-5.036-3.473c-2.062-0.443-4.256-0.039-6.028,1.109L40.975,41.746
		c-3.701,2.4-4.761,7.363-2.361,11.064l46.254,71.361l-46.254,71.355c-1.163,1.795-1.558,3.934-1.111,6.021
		c0.44,2.061,1.705,3.898,3.473,5.043l16.783,10.879c1.299,0.842,2.804,1.287,4.352,1.287c0.563,0,1.126-0.059,1.669-0.176
		c2.06-0.439,3.898-1.705,5.044-3.473l56.124-86.586C126.663,125.879,126.663,122.463,124.948,119.82z"/>
	<path d="M249.943,17.15c-0.452-2.088-1.688-3.877-3.484-5.035l-16.81-10.84C228.354,0.441,226.856,0,225.319,0
		c-2.732,0-5.248,1.369-6.729,3.664L103.111,182.73c-1.697,2.635-1.697,6.037,0,8.672l59.579,92.383
		c1.48,2.295,3.996,3.664,6.729,3.664c1.536,0,3.034-0.441,4.331-1.277l16.809-10.84c1.795-1.158,3.032-2.945,3.484-5.037
		c0.45-2.088,0.061-4.227-1.097-6.021l-49.794-77.207L248.845,23.176C250.004,21.381,250.393,19.242,249.943,17.15z"/>
</g>
<g>
</g>
<g>
</g>
<g>
</g>
<g>
</g>
<g>
</g>
<g>
</g>
<g>
</g>
<g>
</g>
<g>
</g>
<g>
</g>
<g>
</g>
<g>
</g>
<g>
</g>
<g>
</g>
<g>
</g>
</svg>
